<svg width="500" height="500" viewBox="0 0 500 500" fill="none" xmlns="http://www.w3.org/2000/svg">
<rect width="500" height="500" fill="black"/>
<rect width="500" height="500" fill="url(#paint0_radial_102_3)" fill-opacity="0.43"/>
<path d="M58.0727 361.5L248.636 473V250L58.0727 138.5V361.5Z" fill="#0A1F5C"/>
<path d="M439.2 361.5V138.5L248.636 250V473L439.2 361.5Z" fill="#07153F"/>
<path d="M439.2 138.5L248.636 27L58.0727 138.5L248.636 250L439.2 138.5Z" fill="#0D2673"/>
<path d="M439.2 138.5L248.636 27L58.0727 138.5L248.636 250L439.2 138.5Z" fill="url(#paint1_diamond_102_3)"/>
<path d="M296.294 338.855L296.55 331.205C301.009 328.699 304.168 325.511 306.027 321.642C307.912 317.757 308.967 312.442 309.193 305.698L309.853 285.957C310.042 280.281 310.554 275.171 311.387 270.627C312.247 266.068 313.523 261.981 315.216 258.366C316.909 254.751 319.112 251.536 321.826 248.719C324.541 245.902 327.86 243.39 331.785 241.184L331.381 253.276C328.284 255.016 325.816 257.13 323.977 259.616C322.166 262.087 320.834 265.096 319.981 268.642C319.157 272.131 318.665 276.282 318.504 281.094L317.679 305.77C317.572 308.978 317.194 312.056 316.545 315.003C315.923 317.935 314.846 320.76 313.315 323.478C311.783 326.195 309.638 328.833 306.88 331.392C304.149 333.936 300.62 336.423 296.294 338.855ZM326.507 399.113C322.582 401.319 319.306 402.514 316.68 402.699C314.053 402.884 311.985 402.069 310.473 400.255C308.962 398.441 307.915 395.66 307.333 391.911C306.777 388.148 306.595 383.428 306.784 377.752L307.444 358.011C307.67 351.267 306.936 346.957 305.243 345.084C303.577 343.196 300.514 343.505 296.055 346.011L296.311 338.361C300.637 335.93 304.131 334.471 306.793 333.983C309.482 333.48 311.53 333.762 312.935 334.829C314.341 335.895 315.266 337.594 315.712 339.926C316.185 342.243 316.368 345.006 316.261 348.214L315.436 372.89C315.275 377.702 315.503 381.447 316.121 384.127C316.766 386.791 317.945 388.368 319.657 388.858C321.396 389.375 323.813 388.762 326.911 387.021L326.507 399.113ZM296.055 346.011L296.55 331.205L306.003 325.892L305.508 340.698L296.055 346.011Z" fill="#02A6F2"/>
<path d="M401.42 279.285L401.165 286.935C396.705 289.441 393.533 292.636 391.648 296.521C389.789 300.39 388.747 305.697 388.522 312.442L387.862 332.183C387.672 337.859 387.148 342.976 386.288 347.535C385.455 352.079 384.192 356.159 382.499 359.773C380.806 363.388 378.602 366.604 375.888 369.421C373.174 372.238 369.854 374.749 365.929 376.956L366.333 364.864C369.431 363.123 371.886 360.997 373.699 358.484C375.538 355.998 376.869 353.01 377.693 349.521C378.544 346.016 379.05 341.858 379.21 337.046L380.035 312.369C380.143 309.161 380.507 306.091 381.129 303.159C381.778 300.212 382.868 297.379 384.4 294.662C385.932 291.945 388.063 289.314 390.795 286.77C393.553 284.211 397.095 281.716 401.42 279.285ZM371.208 219.027C375.133 216.821 378.409 215.625 381.035 215.441C383.661 215.256 385.73 216.071 387.241 217.885C388.753 219.699 389.786 222.487 390.342 226.251C390.924 230 391.12 234.712 390.93 240.387L390.27 260.128C390.045 266.873 390.765 271.19 392.431 273.078C394.124 274.952 397.2 274.635 401.66 272.129L401.404 279.778C397.078 282.21 393.571 283.677 390.881 284.179C388.219 284.667 386.185 284.377 384.779 283.311C383.374 282.245 382.435 280.553 381.962 278.236C381.516 275.904 381.347 273.134 381.454 269.926L382.279 245.25C382.44 240.438 382.198 236.7 381.553 234.035C380.937 231.315 379.759 229.717 378.019 229.242C376.306 228.752 373.901 229.378 370.804 231.118L371.208 219.027ZM401.66 272.129L401.165 286.935L391.712 292.247L392.207 277.442L401.66 272.129Z" fill="#02A6F2"/>
<defs>
<radialGradient id="paint0_radial_102_3" cx="0" cy="0" r="1" gradientUnits="userSpaceOnUse" gradientTransform="translate(250 250) rotate(90) scale(324.5)">
<stop stop-color="#04113D"/>
<stop offset="0.824659" stop-color="#00208D"/>
<stop offset="1" stop-color="#00178E"/>
<stop offset="1" stop-color="#00178E"/>
</radialGradient>
<radialGradient id="paint1_diamond_102_3" cx="0" cy="0" r="1" gradientUnits="userSpaceOnUse" gradientTransform="translate(249.448 137.284) rotate(-178.358) scale(169.772 103.499)">
<stop stop-color="white" stop-opacity="0.15"/>
<stop offset="1" stop-opacity="0"/>
</radialGradient>
</defs>
</svg>
